<svg xmlns="http://www.w3.org/2000/svg" viewBox="0 0 128 128">
<defs><filter id="ds" x="-20%" y="-20%" width="140%" height="140%"><feDropShadow dx="3" dy="4" stdDeviation="0" flood-color="#000" flood-opacity=".8"/></filter></defs>
<rect width="128" height="128" fill="#090a0d"/>
<path d="M20 18h72l18 18v74H36L18 92V20z" fill="#14171c" stroke="#f2f0e8" stroke-width="3" opacity=".92"/>
<path d="M27 27h35M96 43v34M39 101h43" fill="none" stroke="#d9e0e8" stroke-width="3" stroke-linecap="square" opacity=".78"/>
<g filter="url(#ds)" fill="#f7f4ea" stroke="#050608" stroke-width="3.8" stroke-linejoin="round" stroke-linecap="round"><g transform=""><path d="M53 21l24 7 9 22-18 13-26-10-9-22z"/><path d="M54 32h20l-5 13H48z" fill="#090a0d" stroke="none"/><path d="M43 55h36l-10 29H37z"/><path d="M41 63L17 75l-7-12 29-18zM73 61l29-14 7 12-31 20zM42 82l-20 28H7l24-42zM64 82l30 25H73L52 90z"/></g><path d="M14 45h30M10 64h38M18 84h24"/></g>
<path d="M90 21h18v5H95v13h-5zM20 107h20v-5H25V88h-5z" fill="#d9e0e8" opacity=".8"/>
</svg>
