<svg xmlns="http://www.w3.org/2000/svg" viewBox="0 0 128 128">
<defs><filter id="ds" x="-20%" y="-20%" width="140%" height="140%"><feDropShadow dx="3" dy="4" stdDeviation="0" flood-color="#000" flood-opacity=".8"/></filter></defs>
<rect width="128" height="128" fill="#090a0d"/>
<path d="M20 18h72l18 18v74H36L18 92V20z" fill="#14171c" stroke="#f2f0e8" stroke-width="3" opacity=".92"/>
<path d="M27 27h35M96 43v34M39 101h43" fill="none" stroke="#72ff9f" stroke-width="3" stroke-linecap="square" opacity=".78"/>
<g filter="url(#ds)" fill="#f7f4ea" stroke="#050608" stroke-width="3.8" stroke-linejoin="round" stroke-linecap="round"><path d="M31 101c13-39 33-68 65-87-5 36-26 66-65 87zM70 104c7-33 22-58 49-75-1 31-18 57-49 75z"/></g>
<path d="M90 21h18v5H95v13h-5zM20 107h20v-5H25V88h-5z" fill="#72ff9f" opacity=".8"/>
</svg>
