<svg xmlns="http://www.w3.org/2000/svg" viewBox="0 0 128 128">
<defs><filter id="ds" x="-20%" y="-20%" width="140%" height="140%"><feDropShadow dx="3" dy="4" stdDeviation="0" flood-color="#000" flood-opacity=".8"/></filter></defs>
<rect width="128" height="128" fill="#090a0d"/>
<path d="M20 18h72l18 18v74H36L18 92V20z" fill="#14171c" stroke="#f2f0e8" stroke-width="3" opacity=".92"/>
<path d="M27 27h35M96 43v34M39 101h43" fill="none" stroke="#d9e0e8" stroke-width="3" stroke-linecap="square" opacity=".78"/>
<g filter="url(#ds)" fill="#f7f4ea" stroke="#050608" stroke-width="3.8" stroke-linejoin="round" stroke-linecap="round"><path d="M17 64c16-22 33-33 51-33s35 11 51 33c-16 22-33 33-51 33S33 86 17 64z"/><circle cx="68" cy="64" r="21"/><circle cx="68" cy="64" r="9" fill="#090a0d" stroke="none"/></g>
<path d="M90 21h18v5H95v13h-5zM20 107h20v-5H25V88h-5z" fill="#d9e0e8" opacity=".8"/>
</svg>
